<?xml version="1.0" encoding="iso-8859-1"?>
<!-- Uploaded to: SVG Repo, www.svgrepo.com, Generator: SVG Repo Mixer Tools -->
<svg height="800px" width="800px" version="1.1" id="Layer_1" xmlns="http://www.w3.org/2000/svg" xmlns:xlink="http://www.w3.org/1999/xlink" 
	 viewBox="0 0 392.534 392.534" xml:space="preserve">
<path style="fill:#FFFFFF;" d="M42.796,178.231v38.723c0,20.105,58.44,48.162,153.535,48.162s153.535-28.057,153.535-48.162v-38.723
	c-31.935,22.82-94.061,34.909-153.535,34.909S74.731,201.051,42.796,178.231z"/>
<path style="fill:#FFC10D;" d="M196.331,191.354c95.095,0,153.535-28.057,153.535-48.162v-38.141
	c-31.935,22.756-94.061,34.78-153.535,34.78s-121.6-12.024-153.535-34.844v38.141C42.796,163.297,101.236,191.354,196.331,191.354z"
	/>
<path style="fill:#56ACE0;" d="M42.796,69.948c0,20.105,58.44,48.162,153.535,48.162s153.535-28.057,153.535-48.162
	c0-17.778-45.64-41.697-121.988-47.063v36.008c0,6.012-4.848,10.925-10.925,10.925c-6.012,0-10.925-4.848-10.925-10.925V21.98
	c-3.168-0.065-6.4-0.065-9.632-0.065c-3.232,0-6.465,0.065-9.632,0.065v16.356c0,6.012-4.848,10.925-10.925,10.925
	s-10.925-4.848-10.925-10.925V22.885C88.566,28.186,42.796,52.17,42.796,69.948z"/>
<path style="fill:#FFC10D;" d="M196.331,341.075c-8.21,0-14.804,6.659-14.804,14.869c0,8.21,6.659,14.869,14.804,14.869
	c8.21,0,14.869-6.659,14.869-14.869C211.2,347.734,204.541,341.075,196.331,341.075z"/>
<path style="fill:#194F82;" d="M381.737,345.018H231.305c-3.556-11.442-12.671-20.493-24.113-24.113v-34.133
	c81.584-2.004,164.461-26.246,164.461-69.754V69.948C371.653,24.501,281.341,0,196.331,0S21.01,24.501,21.01,69.948v147.006
	c0,43.507,82.747,67.749,164.461,69.754v34.133c-11.442,3.556-20.493,12.606-24.113,24.113H10.925
	C4.913,344.954,0,349.802,0,355.879c0,6.012,4.848,10.925,10.925,10.925h150.368c4.655,14.933,18.554,25.729,34.974,25.729
	c16.356,0,30.384-10.796,34.974-25.729h150.368c6.012,0,10.925-4.848,10.925-10.925
	C392.598,349.867,387.749,345.018,381.737,345.018z M164.784,22.885v15.451c0,6.012,4.848,10.925,10.925,10.925
	c6.012,0,10.925-4.848,10.925-10.925V21.98c3.168-0.065,6.4-0.065,9.632-0.065c3.232,0,6.465,0.065,9.632,0.065v37.042
	c0,6.012,4.848,10.925,10.925,10.925c6.012,0,10.925-4.848,10.925-10.925V22.95c76.347,5.301,121.988,29.285,121.988,47.063
	c0,20.105-58.44,48.162-153.535,48.162S42.796,89.988,42.796,69.948C42.796,52.17,88.566,28.186,164.784,22.885z M42.796,104.986
	c31.935,22.82,94.061,34.844,153.535,34.844s121.6-12.024,153.535-34.844v38.141c0,20.105-58.44,48.162-153.535,48.162
	S42.796,163.297,42.796,143.192V104.986z M42.796,216.954v-38.723c31.935,22.82,94.061,34.844,153.535,34.844
	s121.6-12.024,153.535-34.844v38.723c0,20.105-58.44,48.162-153.535,48.162S42.796,237.059,42.796,216.954z M196.331,370.748
	c-8.21,0-14.804-6.659-14.804-14.869c0-8.21,6.659-14.869,14.804-14.869c8.21,0,14.869,6.659,14.869,14.869
	C211.2,364.089,204.541,370.748,196.331,370.748z"/>
</svg>